<svg width="325" height="320" viewBox="0 0 325 320" fill="none" xmlns="http://www.w3.org/2000/svg">
<rect x="6.55078" y="225.016" width="212.548" height="119.725" rx="11" transform="rotate(-45 6.55078 225.016)" fill="#D8DDD8"/>
<path d="M318.246 0C318.485 0 318.679 0.193908 318.679 0.433105C318.679 0.672303 318.873 0.866211 319.112 0.866211H321.633C323.264 0.866211 324.587 2.18881 324.587 3.82031V237.959C324.587 239.269 323.946 240.496 322.87 241.243L211.298 318.822C208.646 320.666 205.015 318.769 205.015 315.538V123.572C205.015 121.363 203.224 119.572 201.015 119.572H4.00674C0.776384 119.572 -1.12154 115.941 0.722615 113.289L78.3016 1.71647C79.0493 0.641163 80.276 0 81.5857 0H318.246Z" fill="#285C53"/>
</svg>
